<?xml version="1.0" encoding="UTF-8"?>
<svg version="1.1" xmlns="http://www.w3.org/2000/svg" width="535" height="514">
<path d="M0 0 C176.55 0 353.1 0 535 0 C535 169.62 535 339.24 535 514 C358.45 514 181.9 514 0 514 C0 344.38 0 174.76 0 0 Z " fill="#FEFEFE" transform="translate(0,0)"/>
<path d="M0 0 C0.1858667 0.54301758 0.3717334 1.08603516 0.56323242 1.64550781 C7.55511631 22.01138963 15.16994934 42.44459107 26.6875 60.75 C27.12175293 61.44174316 27.55600586 62.13348633 28.00341797 62.84619141 C32.01603811 69.15881684 36.37958693 75.11487532 41 81 C41.64453125 81.83789062 42.2890625 82.67578125 42.953125 83.5390625 C48.27793735 90.35741977 54.05678571 96.72340596 60 103 C60.8765625 103.93070312 61.753125 104.86140625 62.65625 105.8203125 C69.57902182 112.96705635 77.03825967 119.05918282 85 125 C85.56589844 125.42667969 86.13179688 125.85335937 86.71484375 126.29296875 C96.03634188 133.28947428 105.80606202 139.35781806 116 145 C116.63599121 145.35304199 117.27198242 145.70608398 117.92724609 146.06982422 C126.37926845 150.69067601 135.11861183 154.3455306 144.125 157.75 C145.08994385 158.11488525 146.0548877 158.47977051 147.04907227 158.85571289 C159.37123887 163.39174101 171.98131259 166.78145657 184.875 169.25 C185.5615567 169.38173615 186.2481134 169.51347229 186.95547485 169.64920044 C211.91412225 174.28272793 240.33553066 174.25427989 265.3125 169.6875 C266.00690186 169.56141357 266.70130371 169.43532715 267.41674805 169.30541992 C273.48251596 168.17144716 279.48428886 166.77551472 285.46801758 165.27026367 C288.79424106 164.4458426 291.54268432 164 295 164 C295.67756882 165.55780332 296.34159457 167.12150096 297 168.6875 C297.37125 169.55761719 297.7425 170.42773438 298.125 171.32421875 C299.01870488 174.0572002 299.16449676 176.14700934 299 179 C279.97049367 184.28925719 259.80566426 188.76840497 240 189 C239.0109668 189.01901367 238.02193359 189.03802734 237.00292969 189.05761719 C215.99982422 189.42715553 195.55197439 188.56333362 175 184 C174.26555664 183.84192871 173.53111328 183.68385742 172.77441406 183.52099609 C121.33822539 172.2740475 71.90078716 143.57623173 38 103 C37.54786133 102.46697266 37.09572266 101.93394531 36.62988281 101.38476562 C23.40963336 85.75699471 12.55585192 69.08327135 3 51 C2.67161133 50.38705078 2.34322266 49.77410156 2.00488281 49.14257812 C-15 17.26508621 -15 17.26508621 -15 4 C-13.06441401 3.32779649 -11.12645628 2.66241923 -9.1875 2 C-8.10855469 1.62875 -7.02960937 1.2575 -5.91796875 0.875 C-3 0 -3 0 0 0 Z " fill="#060606" transform="translate(39,319)"/>
<path d="M0 0 C0.71344574 -0.00167175 1.42689148 -0.00334351 2.16195679 -0.00506592 C52.84950361 -0.01211555 104.46713498 14.99103437 145.66503906 45.00488281 C146.85563516 45.87182172 148.05065159 46.73270887 149.24902344 47.58886719 C159.02638581 54.58243101 167.98346734 62.12759032 176.59326172 70.51513672 C178.32363127 72.19998271 180.06904209 73.86796939 181.81640625 75.53515625 C188.9776903 82.44737035 195.23614286 89.78089936 201.21728516 97.72949219 C202.74326147 99.73366353 204.34552228 101.67306461 205.9375 103.625 C219.15965018 120.6746147 229.28658521 140.64304991 237.125 160.625 C237.41898682 161.37426758 237.71297363 162.12353516 238.01586914 162.89550781 C242.375 174.21536948 242.375 174.21536948 242.375 180.25 C240.62683142 180.75636607 238.87637737 181.25484619 237.125 181.75 C236.15046875 182.0284375 235.1759375 182.306875 234.171875 182.59375 C231.375 183.25 231.375 183.25 227.375 183.25 C227.1790625 182.61578125 226.983125 181.9815625 226.78125 181.328125 C219.05257021 157.20931395 208.46376818 134.64952623 193.375 114.25 C192.9536377 113.67314453 192.53227539 113.09628906 192.09814453 112.50195312 C186.05734302 104.26513982 179.44794159 96.61603811 172.375 89.25 C171.83858887 88.68635742 171.30217773 88.12271484 170.74951172 87.54199219 C162.52661565 78.9415505 153.94003213 71.31957253 144.375 64.25 C143.53267822 63.61650635 143.53267822 63.61650635 142.67333984 62.97021484 C118.94657866 45.15632406 92.022765 31.9078458 63.375 24.25 C62.71145508 24.06840332 62.04791016 23.88680664 61.36425781 23.69970703 C42.88357822 18.66738792 25.35416811 16.73340778 6.20922852 16.80395508 C2.70984587 16.81244578 -0.78788738 16.78362363 -4.28710938 16.75195312 C-22.4140588 16.69660244 -39.86363195 18.74675199 -57.3203125 23.734375 C-59.81892191 24.29338592 -62.0727535 24.34082728 -64.625 24.25 C-67.88468109 14.83997722 -67.88468109 14.83997722 -68.625 10.25 C-47.16893784 1.58505182 -22.91321283 0.02863361 0 0 Z " fill="#060505" transform="translate(264.625,3.75)"/>
<path d="M0 0 C5.10354387 3.16179149 9.35356951 7.15153091 11.2578125 12.9375 C12.18393249 20.01570279 12.32555037 27.07824096 8.51953125 33.328125 C4.34567455 38.65205366 -1.16286812 42.2596946 -7.90625 43.2578125 C-13.64118202 43.55342755 -18.07713892 42.30615613 -22.7421875 38.9375 C-26.7914652 35.06779115 -30.40599415 30.95450788 -31.04296875 25.23828125 C-31.09994673 10.70889624 -31.09994673 10.70889624 -26.125 5.12109375 C-18.69036253 -1.49988168 -9.65368375 -3.74045866 0 0 Z " fill="#080808" transform="translate(115.7421875,196.0625)"/>
<path d="M0 0 C10 0 10 0 12.19140625 1.6953125 C12.87009766 2.89800781 12.87009766 2.89800781 13.5625 4.125 C14.10132813 5.0221875 14.64015625 5.919375 15.1953125 6.84375 C15.79085938 7.8853125 16.38640625 8.926875 17 10 C18.17749517 11.85806577 19.37683649 13.70050602 20.58154297 15.54101562 C22.40774899 18.34773054 24.20046336 21.17611174 26 24 C26.33 16.08 26.66 8.16 27 0 C30.3 0 33.6 0 37 0 C37 14.19 37 28.38 37 43 C27 43 27 43 24.50366211 40.92041016 C23.93397705 39.96956543 23.36429199 39.0187207 22.77734375 38.0390625 C22.13732422 37.01039063 21.49730469 35.98171875 20.83789062 34.921875 C19.89719727 33.28992188 19.89719727 33.28992188 18.9375 31.625 C18.27556641 30.54476562 17.61363281 29.46453125 16.93164062 28.3515625 C12.72042411 21.44084821 12.72042411 21.44084821 11 18 C10.67 26.25 10.34 34.5 10 43 C6.7 43 3.4 43 0 43 C0 28.81 0 14.62 0 0 Z " fill="#0A0909" transform="translate(257,195)"/>
<path d="M0 0 C10 0 10 0 12.19140625 1.6953125 C12.87009766 2.89800781 12.87009766 2.89800781 13.5625 4.125 C14.10132813 5.0221875 14.64015625 5.919375 15.1953125 6.84375 C15.79085937 7.8853125 16.38640625 8.926875 17 10 C18.17749517 11.85806577 19.37683649 13.70050602 20.58154297 15.54101562 C22.40774899 18.34773054 24.20046336 21.17611174 26 24 C26.33 16.08 26.66 8.16 27 0 C30.3 0 33.6 0 37 0 C37 14.19 37 28.38 37 43 C27 43 27 43 24.50366211 40.92041016 C23.93397705 39.96956543 23.36429199 39.0187207 22.77734375 38.0390625 C22.13732422 37.01039063 21.49730469 35.98171875 20.83789062 34.921875 C19.89719727 33.28992188 19.89719727 33.28992188 18.9375 31.625 C18.27556641 30.54476562 17.61363281 29.46453125 16.93164062 28.3515625 C12.72042411 21.44084821 12.72042411 21.44084821 11 18 C10.67 26.25 10.34 34.5 10 43 C6.7 43 3.4 43 0 43 C0 28.81 0 14.62 0 0 Z " fill="#0A0909" transform="translate(173,195)"/>
<path d="M0 0 C17 0 17 0 24 4 C26 6 26 6 26.375 9.6875 C26.28948178 14.36534669 24.56138872 17.15791692 22 21 C23.1446875 21.3403125 23.1446875 21.3403125 24.3125 21.6875 C27.65829589 23.32149334 28.53342986 24.6037323 30 28 C30.60421474 32.05687038 30.19514144 33.66175484 28.125 37.25 C24.56338028 41.85915493 24.56338028 41.85915493 20 43 C13.4 43 6.8 43 0 43 C0 28.81 0 14.62 0 0 Z " fill="#070606" transform="translate(189,267)"/>
<path d="M0 0 C3.3 0 6.6 0 10 0 C10.01981934 0.9286084 10.03963867 1.8572168 10.06005859 2.81396484 C10.13808613 6.2545052 10.22477462 9.69459891 10.31738281 13.13476562 C10.35569998 14.62458889 10.39054808 16.11450554 10.421875 17.60449219 C10.46746729 19.74448048 10.52546874 21.88382436 10.5859375 24.0234375 C10.6173584 25.31169434 10.6487793 26.59995117 10.68115234 27.92724609 C10.68458268 31.10481505 10.68458268 31.10481505 13 33 C16.45769191 33.58342353 16.45769191 33.58342353 20 33 C22.94870412 29.28910376 23.40128741 26.26567109 23.51171875 21.60546875 C23.54716797 20.40341797 23.58261719 19.20136719 23.61914062 17.96289062 C23.64169922 16.71701172 23.66425781 15.47113281 23.6875 14.1875 C23.72166016 12.92228516 23.75582031 11.65707031 23.79101562 10.35351562 C23.87337129 7.23576555 23.94256529 4.11829241 24 1 C26.97 1 29.94 1 33 1 C33.04958948 5.46572364 33.085809 9.93129961 33.10986328 14.3972168 C33.11989545 15.91514886 33.13352438 17.43306173 33.15087891 18.95092773 C33.17525035 21.1379064 33.18651095 23.32462864 33.1953125 25.51171875 C33.21102295 27.48338013 33.21102295 27.48338013 33.22705078 29.49487305 C32.92061276 34.22555113 32.14238935 36.91936143 28.6875 40.1875 C22.87922584 44.10470815 17.90708994 44.67738342 11 44 C6.10068427 42.52096129 3.62566975 40.03720218 1.04077148 35.77734375 C-1.28523082 29.57030593 -0.49661413 22.53778868 -0.3125 16 C-0.28738325 14.44665051 -0.26457603 12.89326187 -0.24414062 11.33984375 C-0.18941589 7.55891854 -0.10333666 3.77989621 0 0 Z " fill="#070707" transform="translate(108,267)"/>
<path d="M0 0 C21.53125 0 21.53125 0 27.3125 5 C30.1751271 8.39274323 30.29046262 11.66574084 30.2109375 16.0078125 C29.75742445 20.29099131 27.58497539 22.44502335 24.5625 25.3125 C19.27055278 27.81921184 14.82185232 27.25874899 9 27 C9 32.28 9 37.56 9 43 C6.03 43 3.06 43 0 43 C0 28.81 0 14.62 0 0 Z " fill="#070707" transform="translate(33,267)"/>
<path d="M0 0 C1.28648438 -0.00515625 2.57296875 -0.0103125 3.8984375 -0.015625 C7.49213815 0.24052976 10.28387947 0.94665267 13.625 2.25 C13.06771087 5.59373475 12.27326111 8.28312999 10.625 11.25 C9.985625 11.085 9.34625 10.92 8.6875 10.75 C2.97608247 9.81752367 -1.58465811 9.30600155 -6.8125 12.0625 C-10.31997391 15.05668505 -11.31238722 16.47360154 -11.6875 21.125 C-11.57571165 24.93279072 -10.85798271 27.25329672 -8.375 30.25 C-4.30703728 33.62059768 -0.4532142 33.68555833 4.625 33.25 C6.63220923 32.96325582 8.63678687 32.64764263 10.625 32.25 C13.76004823 37.55546624 13.76004823 37.55546624 13.1875 40.5 C10.37461431 43.65043197 7.21980949 44.06222808 3.13671875 44.54296875 C-4.03752309 44.91842412 -9.53715377 43.51336581 -15.375 39.25 C-17.74296454 36.77417786 -19.63943033 34.19929576 -21.375 31.25 C-21.74753906 30.61707031 -22.12007812 29.98414063 -22.50390625 29.33203125 C-24.49748146 24.56711831 -24.33482879 18.75669573 -22.5 13.96484375 C-17.298858 5.08526251 -10.29951984 -0.04111585 0 0 Z " fill="#0C0B0B" transform="translate(27.375,194.75)"/>
<path d="M0 0 C7.92 0 15.84 0 24 0 C24 2.97 24 5.94 24 9 C19.38 9 14.76 9 10 9 C10 11.64 10 14.28 10 17 C14.62 17 19.24 17 24 17 C24 19.97 24 22.94 24 26 C19.05 26 14.1 26 9 26 C9 28.64 9 31.28 9 34 C13.95 34 18.9 34 24 34 C24 36.97 24 39.94 24 43 C16.08 43 8.16 43 0 43 C0 28.81 0 14.62 0 0 Z " fill="#0C0B0C" transform="translate(342,195)"/>
<path d="M0 0 C1.2890625 -0.01675781 2.578125 -0.03351563 3.90625 -0.05078125 C7.62908842 0.32554916 9.51069546 1.13375688 12.5 3.3125 C11.95276317 6.68712715 11.4451 8.39485 9.5 11.3125 C8.84 11.1475 8.18 10.9825 7.5 10.8125 C1.06448067 9.73991344 -4.00527858 9.47897343 -9.5 13.3125 C-11.93128785 16.76336018 -12.52344105 18.64442995 -12.375 22.875 C-11.26191769 27.24782337 -10.28586445 30.24098133 -6.3125 32.625 C-0.62610795 34.01500694 4.82095736 33.44830853 10.5 32.3125 C12.0625 35.125 12.0625 35.125 13.5 38.3125 C12.5 41.3125 12.5 41.3125 10.75 42.26171875 C3.01111606 44.80104004 -3.09736337 45.69283144 -10.6875 42.25 C-16.53784408 39.0473233 -20.98579914 34.5531057 -23.5 28.3125 C-24.41071021 21.7711488 -24.47280139 15.91452811 -20.8125 10.25 C-14.97798933 2.7719652 -9.47310096 0.0284193 0 0 Z " fill="#0A0909" transform="translate(414.5,266.6875)"/>
<path d="M0 0 C1.66482422 -0.00773437 1.66482422 -0.00773437 3.36328125 -0.015625 C6.7671616 0.25636544 9.50761732 1.03769979 12.6875 2.25 C12.13021087 5.59373475 11.33576111 8.28312999 9.6875 11.25 C8.1096875 10.755 8.1096875 10.755 6.5 10.25 C3.29876643 9.41033218 0.9463992 9.05249096 -2.3125 9.25 C-2.6425 10.9 -2.9725 12.55 -3.3125 14.25 C-2.42046875 14.70890625 -1.5284375 15.1678125 -0.609375 15.640625 C0.57312062 16.26002747 1.75540098 16.87984099 2.9375 17.5 C4.09765625 18.10328125 5.2578125 18.7065625 6.453125 19.328125 C9.45664863 21.11282745 11.57301839 22.4837243 13.6875 25.25 C14.68528174 30.17287904 14.44813771 34.78957561 12.125 39.25 C6.86543484 43.56554065 2.03927421 44.85234775 -4.66796875 44.6875 C-9.35170162 43.91264316 -13.27168856 41.65729192 -17.3125 39.25 C-16.63334333 34.93914241 -15.6347714 33.14359122 -12.3125 30.25 C-11.3225 30.91 -10.3325 31.57 -9.3125 32.25 C-5.1617018 34.66068853 -2.03930045 34.58170529 2.6875 34.25 C3.16315133 31.89610819 3.16315133 31.89610819 2.6875 29.25 C0.20559537 27.31054946 0.20559537 27.31054946 -3 25.8125 C-11.51315063 21.1488614 -11.51315063 21.1488614 -14.3125 16.25 C-15.16466277 12.66080597 -15.16163104 9.71580036 -13.28515625 6.4765625 C-9.25871613 1.45881037 -6.30256424 -0.02907757 0 0 Z " fill="#0B0B0B" transform="translate(489.3125,266.75)"/>
<path d="M0 0 C1.20269531 -0.02578125 2.40539062 -0.0515625 3.64453125 -0.078125 C7.47738045 0.2768467 9.88465027 1.32797413 13.1875 3.25 C12.52083333 5.91666667 11.85416667 8.58333333 11.1875 11.25 C10.383125 11.085 9.57875 10.92 8.75 10.75 C0.51471706 9.58469683 0.51471706 9.58469683 -7.25 12 C-10.91832492 15.22096822 -11.64992119 16.78679069 -12.1875 21.625 C-11.73823223 25.9679218 -10.6462428 27.95673134 -7.8125 31.25 C-2.94729945 34.22317811 2.74929596 33.65636734 8.1875 32.75 C9.1775 32.5025 9.1775 32.5025 10.1875 32.25 C11.1775 34.89 12.1675 37.53 13.1875 40.25 C6.27102719 43.9126239 0.62207779 45.65277136 -7.09765625 43.66015625 C-13.54147577 41.26168483 -17.939806 36.86145457 -21.8125 31.25 C-23.92916803 25.462049 -24.2253125 17.41873661 -21.71875 11.796875 C-16.18013398 4.07816544 -9.51637838 0.12161506 0 0 Z " fill="#090808" transform="translate(434.8125,194.75)"/>
<path d="M0 0 C9.9 0 19.8 0 30 0 C30 2.97 30 5.94 30 9 C26.7 9 23.4 9 20 9 C20 20.22 20 31.44 20 43 C16.7 43 13.4 43 10 43 C10 31.78 10 20.56 10 9 C6.7 9 3.4 9 0 9 C0 6.03 0 3.06 0 0 Z " fill="#0C0B0C" transform="translate(491,195)"/>
<path d="M0 0 C2.97 0 5.94 0 9 0 C9 11.22 9 22.44 9 34 C13.95 34 18.9 34 24 34 C24 36.64 24 39.28 24 42 C16.08 42 8.16 42 0 42 C0 28.14 0 14.28 0 0 Z " fill="#030303" transform="translate(265,268)"/>
<path d="M0 0 C3.06247955 1.79754234 4.56734966 3.23771131 6.3125 6.3125 C7.5207935 11.03582913 7.50725922 14.68112602 5.75 19.25 C2.99315068 23.58219178 2.99315068 23.58219178 0 25 C-3.10988158 25.52512072 -5.89781102 25.6027426 -9 25 C-12.28175318 22.47031526 -13.69243777 20.92268669 -15 17 C-15.55548996 12.21914375 -15.46174709 8.87572723 -13.1875 4.5625 C-9.30643349 0.0161078 -5.79724047 -0.91714156 0 0 Z " fill="#F8F8F8" transform="translate(110,204)"/>
<path d="M0 0 C3.3 0 6.6 0 10 0 C10 14.19 10 28.38 10 43 C6.7 43 3.4 43 0 43 C0 28.81 0 14.62 0 0 Z " fill="#0A0A0A" transform="translate(335,267)"/>
<path d="M0 0 C8.875 0.875 8.875 0.875 10 2 C10.04092937 4.33297433 10.04241723 6.66705225 10 9 C6.5980513 11.09350689 3.94727588 11.17942163 0 11 C0 7.37 0 3.74 0 0 Z " fill="#E0DFDF" transform="translate(198,292)"/>
<path d="M0 0 C7.75 0.875 7.75 0.875 10 2 C10.1875 5.375 10.1875 5.375 10 9 C6.3558226 11.4294516 4.28758728 11.16179575 0 11 C0 7.37 0 3.74 0 0 Z " fill="#EDECED" transform="translate(42,275)"/>
<path d="M0 0 C2.31 0.33 4.62 0.66 7 1 C7.125 3.875 7.125 3.875 7 7 C5 9 5 9 2.375 9.125 C1.59125 9.08375 0.8075 9.0425 0 9 C0 6.03 0 3.06 0 0 Z " fill="#E4E3E4" transform="translate(198,275)"/>
</svg>
